<mxfile host="app.diagrams.net" modified="2022-08-02T10:27:04.443Z" agent="5.0 (Windows NT 10.0; Win64; x64) AppleWebKit/537.36 (KHTML, like Gecko) Chrome/103.0.5060.134 Safari/537.36 Edg/103.0.1264.77" etag="ek9pvTtc-CtCuqAgf-hp" version="20.2.2" type="github">
  <diagram id="C5RBs43oDa-KdzZeNtuy" name="Page-1">
    <mxGraphModel dx="998" dy="579" grid="1" gridSize="10" guides="1" tooltips="1" connect="1" arrows="1" fold="1" page="1" pageScale="1" pageWidth="827" pageHeight="1169" math="0" shadow="0">
      <root>
        <mxCell id="WIyWlLk6GJQsqaUBKTNV-0" />
        <mxCell id="WIyWlLk6GJQsqaUBKTNV-1" parent="WIyWlLk6GJQsqaUBKTNV-0" />
        <mxCell id="fpfkYht1Zz97vpIp1Jbi-11" style="edgeStyle=orthogonalEdgeStyle;rounded=0;orthogonalLoop=1;jettySize=auto;html=1;exitX=0.5;exitY=1;exitDx=0;exitDy=0;" edge="1" parent="WIyWlLk6GJQsqaUBKTNV-1" source="fpfkYht1Zz97vpIp1Jbi-0" target="fpfkYht1Zz97vpIp1Jbi-3">
          <mxGeometry relative="1" as="geometry" />
        </mxCell>
        <mxCell id="fpfkYht1Zz97vpIp1Jbi-0" value="start" style="ellipse;whiteSpace=wrap;html=1;" vertex="1" parent="WIyWlLk6GJQsqaUBKTNV-1">
          <mxGeometry x="334" y="5" width="120" height="70" as="geometry" />
        </mxCell>
        <mxCell id="fpfkYht1Zz97vpIp1Jbi-10" style="edgeStyle=orthogonalEdgeStyle;rounded=0;orthogonalLoop=1;jettySize=auto;html=1;exitX=0.5;exitY=1;exitDx=0;exitDy=0;" edge="1" parent="WIyWlLk6GJQsqaUBKTNV-1" source="fpfkYht1Zz97vpIp1Jbi-3">
          <mxGeometry relative="1" as="geometry">
            <mxPoint x="390" y="200" as="targetPoint" />
          </mxGeometry>
        </mxCell>
        <mxCell id="fpfkYht1Zz97vpIp1Jbi-3" value="a,b" style="shape=parallelogram;perimeter=parallelogramPerimeter;whiteSpace=wrap;html=1;fixedSize=1;" vertex="1" parent="WIyWlLk6GJQsqaUBKTNV-1">
          <mxGeometry x="336" y="112" width="120" height="60" as="geometry" />
        </mxCell>
        <mxCell id="fpfkYht1Zz97vpIp1Jbi-18" style="edgeStyle=orthogonalEdgeStyle;rounded=0;orthogonalLoop=1;jettySize=auto;html=1;exitX=0.5;exitY=1;exitDx=0;exitDy=0;entryX=0.5;entryY=0;entryDx=0;entryDy=0;" edge="1" parent="WIyWlLk6GJQsqaUBKTNV-1" source="fpfkYht1Zz97vpIp1Jbi-12" target="fpfkYht1Zz97vpIp1Jbi-16">
          <mxGeometry relative="1" as="geometry" />
        </mxCell>
        <mxCell id="fpfkYht1Zz97vpIp1Jbi-12" value="c=a+b" style="rounded=0;whiteSpace=wrap;html=1;" vertex="1" parent="WIyWlLk6GJQsqaUBKTNV-1">
          <mxGeometry x="337" y="205" width="120" height="65" as="geometry" />
        </mxCell>
        <mxCell id="fpfkYht1Zz97vpIp1Jbi-27" value="" style="edgeStyle=orthogonalEdgeStyle;rounded=0;orthogonalLoop=1;jettySize=auto;html=1;" edge="1" parent="WIyWlLk6GJQsqaUBKTNV-1" source="fpfkYht1Zz97vpIp1Jbi-16" target="fpfkYht1Zz97vpIp1Jbi-19">
          <mxGeometry relative="1" as="geometry">
            <Array as="points">
              <mxPoint x="404" y="410" />
              <mxPoint x="404" y="410" />
            </Array>
          </mxGeometry>
        </mxCell>
        <mxCell id="fpfkYht1Zz97vpIp1Jbi-16" value="c" style="shape=document;whiteSpace=wrap;html=1;boundedLbl=1;" vertex="1" parent="WIyWlLk6GJQsqaUBKTNV-1">
          <mxGeometry x="337" y="310" width="120" height="50" as="geometry" />
        </mxCell>
        <mxCell id="fpfkYht1Zz97vpIp1Jbi-19" value="end" style="ellipse;whiteSpace=wrap;html=1;" vertex="1" parent="WIyWlLk6GJQsqaUBKTNV-1">
          <mxGeometry x="344" y="394" width="120" height="80" as="geometry" />
        </mxCell>
      </root>
    </mxGraphModel>
  </diagram>
</mxfile>
